<?xml version="1.0" standalone="no"?>
<!DOCTYPE svg PUBLIC "-//W3C//DTD SVG 20010904//EN"
 "http://www.w3.org/TR/2001/REC-SVG-20010904/DTD/svg10.dtd">
<svg version="1.0" xmlns="http://www.w3.org/2000/svg"
 width="592.000000pt" height="592.000000pt" viewBox="0 0 592.000000 592.000000"
 preserveAspectRatio="xMidYMid meet">
<metadata>
Created by potrace 1.11, written by Peter Selinger 2001-2013
</metadata>
<g transform="translate(0.000000,592.000000) scale(0.100000,-0.100000)"
fill="#000000" stroke="none">
<path d="M1760 5914 c-233 -37 -346 -69 -499 -140 -154 -72 -282 -163 -417
-298 -220 -220 -347 -455 -417 -770 l-22 -101 0 -1220 c0 -1149 1 -1226 19
-1320 89 -480 395 -881 833 -1091 205 -99 410 -144 651 -144 l147 0 400 -400
c271 -271 412 -404 437 -415 43 -17 86 -19 123 -5 15 6 212 192 439 415 l411
405 145 0 c80 0 186 7 235 15 636 103 1128 585 1251 1225 17 88 19 181 22
1235 2 802 0 1174 -8 1253 -36 358 -181 662 -435 917 -213 215 -464 350 -774
418 -94 20 -116 21 -1306 23 -665 1 -1221 0 -1235 -2z m442 -1317 c121 -59
200 -151 238 -276 18 -56 20 -93 20 -322 l0 -259 -447 2 -448 3 -3 210 c-2
116 2 245 7 288 24 180 140 322 309 378 44 15 78 18 154 16 89 -4 105 -7 170
-40z m1840 22 c142 -47 240 -146 288 -288 18 -55 20 -85 20 -326 l0 -265 -445
0 -445 0 0 265 c0 241 2 271 20 326 48 141 146 240 285 288 82 28 195 28 277
0z m364 -1611 c70 -38 111 -118 100 -192 -8 -48 -35 -93 -121 -196 -622 -749
-1723 -887 -2515 -316 -163 117 -404 372 -445 470 -31 73 -9 156 55 210 30 25
44 30 100 39 14 3 648 4 1410 3 1288 -1 1387 -2 1416 -18z"/>
</g>
</svg>
